HIERARCHY
ROOT root
{
	OFFSET	0	13.1	24.9
	CHANNELS 6  Xposition Yposition Zposition Xrotation Yrotation Zrotation
	JOINT spine_1
	{
		OFFSET	0	9.99999	0
		CHANNELS 3  Xrotation Yrotation Zrotation
		JOINT spine_2
		{
			OFFSET	0	112	-10
			CHANNELS 3  Xrotation Yrotation Zrotation
			JOINT spine_3
			{
				OFFSET	0	206.5	19.3
				CHANNELS 3  Xrotation Yrotation Zrotation
				JOINT spine_4
				{
					OFFSET	0	110.4	14.6
					CHANNELS 3  Xrotation Yrotation Zrotation
					JOINT neck_1
					{
						OFFSET	0	71.8	-50.3
						CHANNELS 3  Xrotation Yrotation Zrotation
						JOINT neck_2
						{
							OFFSET	0	86.2	-25.8
							CHANNELS 3  Xrotation Yrotation Zrotation
							JOINT head_ee
							{
								OFFSET	0	179.8	-8.7
								CHANNELS 3  Xrotation Yrotation Zrotation
								End Site
								{
									OFFSET	1	0	0
								}
							}
						}
					}
					JOINT left_clavicle
					{
						OFFSET	-43.2	22.4	-70.8
						CHANNELS 3  Xrotation Yrotation Zrotation
						JOINT left_shoulder
						{
							OFFSET	-93.9	-5.79999	48.7
							CHANNELS 3  Xrotation Yrotation Zrotation
							JOINT left_elbow
							{
								OFFSET	-291.4	-30.8	15.2
								CHANNELS 3  Xrotation Yrotation Zrotation
								JOINT left_lowarm_twist
								{
									OFFSET	-110.7	-3.89999	13.6
									CHANNELS 3  Xrotation Yrotation Zrotation
									JOINT left_hand
									{
										OFFSET	-110.7	-3.89999	13.6
										CHANNELS 3  Xrotation Yrotation Zrotation
										JOINT left_ee
										{
											OFFSET	-80.8	-5.10001	12.1
											CHANNELS 3  Xrotation Yrotation Zrotation
											End Site
											{
												OFFSET	1	0	0
											}
										}
									}
								}
							}
						}
					}
					JOINT right_clavicle
					{
						OFFSET	43.2	22.4	-70.8
						CHANNELS 3  Xrotation Yrotation Zrotation
						JOINT right_shoulder
						{
							OFFSET	93.9	-5.79999	48.7
							CHANNELS 3  Xrotation Yrotation Zrotation
							JOINT right_elbow
							{
								OFFSET	291.4	-30.8	15.2
								CHANNELS 3  Xrotation Yrotation Zrotation
								JOINT right_lowarm_twist
								{
									OFFSET	110.7	-3.89999	13.6
									CHANNELS 3  Xrotation Yrotation Zrotation
									JOINT right_hand
									{
										OFFSET	110.7	-3.89999	13.6
										CHANNELS 3  Xrotation Yrotation Zrotation
										JOINT right_ee
										{
											OFFSET	80.8	-5.10001	12.1
											CHANNELS 3  Xrotation Yrotation Zrotation
											End Site
											{
												OFFSET	1	0	0
											}
										}
									}
								}
							}
						}
					}
				}
			}
		}
	}
	JOINT left_hip
	{
		OFFSET	-82.8	-127.5	0.300001
		CHANNELS 3  Xrotation Yrotation Zrotation
		JOINT left_knee
		{
			OFFSET	-28.2	-396.7	2.2
			CHANNELS 3  Xrotation Yrotation Zrotation
			JOINT left_ankle
			{
				OFFSET	-11.7	-411.3	35.4
				CHANNELS 3  Xrotation Yrotation Zrotation
				JOINT left_toes
				{
					OFFSET	0	-60	-88.6
					CHANNELS 3  Xrotation Yrotation Zrotation
					JOINT left_foot_ee
					{
						OFFSET	-22.5	-16.5	-42.2
						CHANNELS 3  Xrotation Yrotation Zrotation
						End Site
						{
							OFFSET	1	0	0
						}
					}
				}
			}
		}
	}
	JOINT right_hip
	{
		OFFSET	82.8	-127.5	0.300001
		CHANNELS 3  Xrotation Yrotation Zrotation
		JOINT right_knee
		{
			OFFSET	28.2	-396.7	2.2
			CHANNELS 3  Xrotation Yrotation Zrotation
			JOINT right_ankle
			{
				OFFSET	11.7	-411.3	35.4
				CHANNELS 3  Xrotation Yrotation Zrotation
				JOINT right_toes
				{
					OFFSET	0	-60	-88.6
					CHANNELS 3  Xrotation Yrotation Zrotation
					JOINT right_foot_ee
					{
						OFFSET	22.5	-16.5	-42.2
						CHANNELS 3  Xrotation Yrotation Zrotation
						End Site
						{
							OFFSET	1	0	0
						}
					}
				}
			}
		}
	}
}
MOTION
Frames: 11
Frame Time: 0.02
2290.7 674.756 -985.379 14.4558 59.1173 -7.57018 -2.5001 -0.499187 -2.30211 -2.49722 -0.351727 -2.32919 -2.47913 0.247266 -2.34257 -2.48677 -0.125697 -2.35222 3.1782 7.55473 5.8155 3.29135 8.16984 7.00802 -0.0 0.0 -0.0 10.6536 0.303334 20.9937 -26.4528 -63.4594 23.1755 1.15349 -29.7428 0.306312 60.5209 -1.82052 -7.15577 -2.03705 -28.2208 -25.543 -0.0 0.0 -0.0 6.78359 -5.93639 -13.1117 -25.7857 28.5676 -57.749 0.224281 6.33984 -0.0124211 49.4893 0.932495 6.05896 0.583242 0.255006 -3.79279 0.0 0.0 0.0 -30.6973 8.27524 -1.49306 -3.48984 0.127874 0.520233 33.4082 -15.1335 -4.53752 -37.0541 0.0 0.0 -0.0 0.0 -0.0 11.2223 -24.9423 -11.9386 -1.78343 -0.0693126 -0.264906 22.6354 15.1745 3.29189 -39.7696 0.0 0.0 0.0 0.0 0.0 
2275.62 668.173 -993.95 14.7459 58.573 -7.93353 -2.65786 -0.229822 -2.19034 -2.65519 -0.0900141 -2.20051 -2.64863 0.474584 -2.15064 -2.65506 0.129061 -2.19857 2.32343 7.39677 5.85898 2.43501 7.99885 7.04791 -0.0 0.0 -0.0 10.5323 0.843495 20.7084 -28.4024 -61.2503 22.708 1.12447 -29.1181 0.292053 59.8749 -1.7628 -7.09637 -2.03776 -28.2043 -25.5422 -0.0 0.0 -0.0 7.36279 -4.91861 -14.2293 -25.0863 28.82 -57.6877 0.226299 6.39641 -0.012645 49.5205 0.934696 6.06228 0.533241 0.449378 -3.37753 0.0 0.0 0.0 -30.6642 8.21789 -1.53516 -3.74999 0.136132 0.559305 33.1331 -15.8573 -4.53095 -36.9875 0.0 0.0 -0.0 0.0 -0.0 11.5069 -25.286 -11.5036 -1.74755 -0.0679997 -0.259557 19.3863 14.7835 2.86117 -40.2473 0.0 0.0 0.0 0.0 0.0 
2254.78 673.897 -1010.45 14.1469 58.1751 -8.03456 -2.77127 -0.114322 -2.06024 -2.76891 0.0169798 -2.06333 -2.7669 0.547169 -1.98956 -2.77235 0.226157 -2.05098 1.93412 7.07012 5.49662 2.03461 7.79525 6.62569 -0.0 0.0 -0.0 10.465 0.929654 20.5638 -28.614 -60.1727 23.7315 1.09396 -28.4532 0.277363 59.4198 -1.72254 -7.05415 -2.04524 -28.1689 -25.5819 -0.0 0.0 -0.0 7.79706 -3.90638 -15.0924 -24.6483 29.1631 -57.8035 0.231103 6.53103 -0.0131858 49.4943 0.932844 6.05948 0.48316 0.602038 -2.97883 0.0 0.0 0.0 -29.7019 7.74326 -0.0306924 -4.08504 0.146506 0.609679 32.9111 -16.8582 -4.53958 -36.9409 0.0 0.0 -0.0 0.0 -0.0 10.7433 -25.6316 -11.7611 -3.60423 -0.131527 -0.537409 16.3452 14.6676 2.44698 -40.1323 0.0 0.0 0.0 0.0 0.0 
2235.23 673.009 -1018.69 13.344 57.6844 -7.42333 -2.84928 -0.0284255 -1.95795 -2.84716 0.0961976 -1.9558 -2.84819 0.598724 -1.86442 -2.85292 0.296819 -1.93554 1.69358 6.85842 5.21742 1.78648 7.69527 6.30416 -0.0 0.0 -0.0 10.4862 1.00033 20.6033 -28.9243 -59.3683 24.8138 1.07022 -27.9299 0.266148 59.0944 -1.69397 -7.02377 -2.04883 -28.1156 -25.5884 -0.0 0.0 -0.0 8.19073 -3.13956 -15.8837 -24.1541 29.4978 -57.9905 0.239216 6.75824 -0.0141246 49.4689 0.931049 6.05677 0.449337 0.708614 -2.70805 0.0 0.0 0.0 -28.997 7.41649 0.754544 -4.50555 0.159108 0.672983 32.7764 -17.5477 -4.54833 -36.9033 0.0 0.0 -0.0 0.0 -0.0 10.281 -25.7909 -11.6478 -5.15748 -0.177727 -0.771302 14.2183 14.6001 2.14855 -40.0517 0.0 0.0 0.0 0.0 0.0 
2201.14 677.096 -1030.26 15.0037 56.9995 -9.26839 -2.99221 0.00337801 -1.89453 -2.99022 0.123903 -1.89048 -2.9922 0.613104 -1.79262 -2.99654 0.322351 -1.86692 2.9919 6.30118 3.62237 3.06256 7.89309 4.47973 -0.0 0.0 -0.0 10.4726 2.78246 20.4526 -31.3308 -58.0067 29.8564 1.01755 -26.7504 0.241954 56.4288 -1.46651 -6.76889 -1.99747 -28.1792 -25.2536 -0.0 0.0 -0.0 8.72562 -1.9676 -16.9834 -23.1277 29.8969 -57.6228 0.212425 6.00722 -0.0111461 49.6539 0.944142 6.07651 0.314868 -0.131895 -2.15802 0.0 0.0 0.0 -27.3774 5.20005 -0.131597 -12.2649 0.307604 1.85352 36.3331 -16.2403 -4.8669 -35.7862 0.0 0.0 -0.0 0.0 -0.0 10.5609 -25.2161 -8.59312 -12.2332 -0.307323 -1.84866 16.4054 13.897 2.44222 -39.4658 0.0 0.0 0.0 0.0 0.0 
2167.27 686.58 -1046.96 16.881 55.0957 -10.19 -3.09403 0.0199685 -1.93197 -3.09196 0.142841 -1.92679 -3.09457 0.644136 -1.82158 -3.09903 0.348423 -1.90041 2.35519 5.12419 0.963013 2.4133 8.16212 1.46241 -0.0 0.0 -0.0 10.1816 3.78198 19.7897 -32.9697 -56.0198 32.297 0.977104 -25.8278 0.224042 56.4074 -1.46473 -6.76681 -1.91097 -24.4699 -23.3124 -0.0 0.0 -0.0 8.31038 0.132058 -16.2136 -21.8358 31.0456 -57.4185 0.269195 7.59583 -0.0178701 49.7757 0.952798 6.08948 -0.0864262 -3.41088 -0.85939 0.0 0.0 0.0 -21.3685 2.71599 -2.96217 -31.1264 -0.00072432 4.7185 39.5177 -12.9082 -5.05957 -29.2429 0.0 0.0 -0.0 0.0 -0.0 9.6684 -24.7975 -7.00373 -19.7971 -0.297998 -3.00832 23.4021 14.9448 3.38328 -40.1851 0.0 0.0 0.0 0.0 0.0 
2141.33 685.494 -1057.73 18.7248 55.0269 -10.9912 -3.17188 -0.00967371 -1.97083 -3.16972 0.11573 -1.96745 -3.1713 0.631161 -1.86709 -3.17602 0.328427 -1.94331 1.83984 4.35163 -0.878485 1.91081 8.38959 -0.603715 -0.0 0.0 -0.0 10.1976 4.55892 19.7609 -33.7511 -55.0839 34.7735 0.959243 -25.4157 0.216318 56.3322 -1.45848 -6.75945 -1.86201 -21.8396 -21.9685 -0.0 0.0 -0.0 8.34093 1.7196 -16.3029 -20.1224 32.1507 -57.7348 0.322982 9.09025 -0.0256753 49.9067 0.962141 6.10342 -0.36515 -5.69264 0.0126214 0.0 0.0 0.0 -16.8692 0.925868 -4.18444 -44.1527 -0.751868 6.56959 41.3005 -10.5651 -5.15098 -24.658 0.0 0.0 -0.0 0.0 -0.0 9.00465 -24.5342 -5.93794 -25.0475 -0.201686 -3.80795 28.3064 15.6396 3.99229 -40.5067 0.0 0.0 0.0 0.0 0.0 
2120.86 684.866 -1074.0 19.8555 55.3276 -12.0073 -3.18627 -0.027214 -1.75136 -3.18457 0.0842674 -1.74954 -3.18521 0.543624 -1.6651 -3.18898 0.273872 -1.73004 1.44659 4.02192 -1.76089 1.52983 8.56276 -1.57512 -0.0 0.0 -0.0 9.88387 5.09962 19.0964 -34.5264 -54.3433 36.9687 0.944209 -25.0667 0.209907 56.242 -1.45102 -6.75064 -1.84624 -19.7196 -21.0241 -0.0 0.0 -0.0 8.38989 3.6713 -16.4211 -17.6727 33.2188 -57.7626 0.40348 11.3031 -0.0399282 50.1637 0.980552 6.13069 -0.560587 -7.33066 0.589601 0.0 0.0 0.0 -12.7769 -0.66959 -5.11186 -52.883 -1.48242 7.69628 39.7168 -8.29674 -4.96521 -21.4026 0.0 0.0 -0.0 0.0 -0.0 7.7483 -24.4599 -5.66735 -27.0044 -0.147097 -4.10331 31.812 15.3629 4.37563 -40.1694 0.0 0.0 0.0 0.0 0.0 
2098.27 695.28 -1078.37 19.4529 55.1379 -12.7444 -3.23881 -0.00414859 -1.59937 -3.23739 0.0976185 -1.59639 -3.23852 0.517417 -1.51339 -3.24162 0.271944 -1.57609 0.471741 3.7328 -2.4574 0.560799 8.65227 -2.2895 -0.0 0.0 -0.0 9.65722 5.72512 18.6035 -34.988 -53.1973 39.7676 0.910108 -24.2675 0.195675 56.5059 -1.47291 -6.77641 -1.77337 -18.4572 -20.0034 -0.0 0.0 -0.0 8.45495 5.39756 -16.5573 -15.9112 34.1166 -56.5319 0.468116 13.0558 -0.0535664 50.0773 0.974351 6.12154 -0.62342 -7.25138 1.03185 0.0 0.0 0.0 -5.57941 -1.98621 -3.98991 -61.2153 -2.33264 8.65796 37.5609 -5.74422 -4.72664 -19.9212 0.0 0.0 -0.0 0.0 -0.0 5.60957 -23.9923 -4.32146 -23.094 -0.24608 -3.51148 32.4799 14.9479 4.43471 -40.251 0.0 0.0 0.0 0.0 0.0 
2083.81 698.451 -1082.77 19.5311 55.2346 -13.1905 -3.26199 0.0118895 -1.4955 -3.26075 0.107017 -1.49172 -3.26217 0.499295 -1.40976 -3.26484 0.270409 -1.47091 -0.0306874 3.71818 -2.50428 0.0551654 8.67293 -2.30281 -0.0 0.0 -0.0 9.65806 6.29218 18.5603 -35.3308 -52.4199 41.8676 0.853691 -22.923 0.173091 56.6909 -1.48834 -6.79441 -1.73499 -17.3555 -19.2844 -0.0 0.0 -0.0 8.95981 6.50715 -17.6182 -14.5481 34.8517 -55.9459 0.516293 14.3464 -0.0649781 50.0168 0.970016 6.11512 -0.662382 -7.04789 1.37288 0.0 0.0 0.0 0.478147 -2.61652 -2.91884 -66.7871 -2.97568 9.22855 35.8355 -3.80844 -4.53782 -19.0206 0.0 0.0 -0.0 0.0 -0.0 3.73213 -23.769 -3.73766 -20.5384 -0.28885 -3.12169 33.1313 14.6795 4.49531 -40.1631 0.0 0.0 0.0 0.0 0.0 
2063.7 691.084 -1091.75 17.8049 55.881 -12.97 -2.81972 0.0887327 -1.16165 -2.81899 0.162467 -1.15365 -2.8216 0.454725 -1.07264 -2.8231 0.279627 -1.13098 -0.312899 3.80114 -2.34997 -0.232153 8.69977 -2.10603 -0.0 0.0 -0.0 9.66017 6.78133 18.5242 -35.7346 -51.8521 43.6598 0.80639 -21.7747 0.155104 56.8106 -1.49835 -6.80604 -1.70479 -16.5106 -18.7243 -0.0 0.0 -0.0 9.35784 7.52181 -18.4635 -13.0434 35.563 -55.6185 0.562812 15.5787 -0.0769895 49.9792 0.96732 6.11112 -0.684757 -6.82996 1.61269 0.0 0.0 0.0 5.41691 -3.08297 -2.35751 -70.2368 -3.40063 9.54976 34.6648 -2.43985 -4.40892 -18.3799 0.0 0.0 -0.0 0.0 -0.0 1.83094 -23.5748 -3.33413 -18.8046 -0.307948 -2.85635 33.5905 14.5812 4.54006 -40.1014 0.0 0.0 0.0 0.0 0.0 
